{
	"asset":{
		"generator":"Khronos glTF Blender I/O v3.6.27",
		"version":"2.0"
	},
	"scene":0,
	"scenes":[
		{
			"name":"Scene",
			"nodes":[
				0
			]
		}
	],
	"nodes":[
		{
			"mesh":0,
			"name":"BCab"
		}
	],
	"materials":[
		{
			"doubleSided":true,
			"name":"BCabinetAll",
			"pbrMetallicRoughness":{
				"baseColorTexture":{
					"index":0
				},
				"metallicFactor":0,
				"roughnessFactor":0.5
			}
		}
	],
	"meshes":[
		{
			"name":"Plane.015",
			"primitives":[
				{
					"attributes":{
						"POSITION":0,
						"NORMAL":1,
						"TEXCOORD_0":2
					},
					"indices":3,
					"material":0
				}
			]
		}
	],
	"textures":[
		{
			"sampler":0,
			"source":0
		}
	],
	"images":[
		{
			"mimeType":"image/png",
			"name":"bottom_cabinet_texture_4k",
			"uri":"textures/bottom_cabinet_texture_4k.png"
		}
	],
	"accessors":[
		{
			"bufferView":0,
			"componentType":5126,
			"count":11723,
			"max":[
				11.394159317016602,
				5.488627910614014,
				7.914673805236816
			],
			"min":[
				-12.984844207763672,
				-0.630359947681427,
				-16.190017700195312
			],
			"type":"VEC3"
		},
		{
			"bufferView":1,
			"componentType":5126,
			"count":11723,
			"type":"VEC3"
		},
		{
			"bufferView":2,
			"componentType":5126,
			"count":11723,
			"type":"VEC2"
		},
		{
			"bufferView":3,
			"componentType":5123,
			"count":33300,
			"type":"SCALAR"
		}
	],
	"bufferViews":[
		{
			"buffer":0,
			"byteLength":140676,
			"byteOffset":0,
			"target":34962
		},
		{
			"buffer":0,
			"byteLength":140676,
			"byteOffset":140676,
			"target":34962
		},
		{
			"buffer":0,
			"byteLength":93784,
			"byteOffset":281352,
			"target":34962
		},
		{
			"buffer":0,
			"byteLength":66600,
			"byteOffset":375136,
			"target":34963
		}
	],
	"samplers":[
		{
			"magFilter":9729,
			"minFilter":9987
		}
	],
	"buffers":[
		{
			"byteLength":441736,
			"uri":"bottom_cabinet.bin"
		}
	]
}
