{
	"asset":{
		"generator":"Khronos glTF Blender I/O v3.6.27",
		"version":"2.0"
	},
	"scene":0,
	"scenes":[
		{
			"name":"Scene",
			"nodes":[
				0
			]
		}
	],
	"nodes":[
		{
			"mesh":0,
			"name":"Bottom Cab Structure.001"
		}
	],
	"materials":[
		{
			"doubleSided":true,
			"name":"BottomCabAllv2",
			"pbrMetallicRoughness":{
				"baseColorTexture":{
					"index":0
				},
				"metallicFactor":0,
				"roughnessFactor":0.5
			}
		}
	],
	"meshes":[
		{
			"name":"Cube.072",
			"primitives":[
				{
					"attributes":{
						"POSITION":0,
						"NORMAL":1,
						"TEXCOORD_0":2
					},
					"indices":3,
					"material":0
				}
			]
		}
	],
	"textures":[
		{
			"sampler":0,
			"source":0
		}
	],
	"images":[
		{
			"mimeType":"image/png",
			"name":"botton_cab_texture_v2",
			"uri":"textures/botton_cab_texture_v2.png"
		}
	],
	"accessors":[
		{
			"bufferView":0,
			"componentType":5126,
			"count":11774,
			"max":[
				10.960561752319336,
				5.523411750793457,
				8.037778854370117
			],
			"min":[
				-12.979007720947266,
				-0.7067885398864746,
				-16.19161033630371
			],
			"type":"VEC3"
		},
		{
			"bufferView":1,
			"componentType":5126,
			"count":11774,
			"type":"VEC3"
		},
		{
			"bufferView":2,
			"componentType":5126,
			"count":11774,
			"type":"VEC2"
		},
		{
			"bufferView":3,
			"componentType":5123,
			"count":21126,
			"type":"SCALAR"
		}
	],
	"bufferViews":[
		{
			"buffer":0,
			"byteLength":141288,
			"byteOffset":0,
			"target":34962
		},
		{
			"buffer":0,
			"byteLength":141288,
			"byteOffset":141288,
			"target":34962
		},
		{
			"buffer":0,
			"byteLength":94192,
			"byteOffset":282576,
			"target":34962
		},
		{
			"buffer":0,
			"byteLength":42252,
			"byteOffset":376768,
			"target":34963
		}
	],
	"samplers":[
		{
			"magFilter":9729,
			"minFilter":9987
		}
	],
	"buffers":[
		{
			"byteLength":419020,
			"uri":"bottom_cabinet_v2.bin"
		}
	]
}
