{
	"asset":{
		"generator":"Khronos glTF Blender I/O v3.6.27",
		"version":"2.0"
	},
	"scene":0,
	"scenes":[
		{
			"name":"Scene",
			"nodes":[
				0
			]
		}
	],
	"nodes":[
		{
			"mesh":0,
			"name":"BCab"
		}
	],
	"materials":[
		{
			"doubleSided":true,
			"name":"BCab_Allv3",
			"pbrMetallicRoughness":{
				"baseColorTexture":{
					"index":0
				},
				"metallicFactor":0,
				"roughnessFactor":0.5
			}
		}
	],
	"meshes":[
		{
			"name":"Cylinder.001",
			"primitives":[
				{
					"attributes":{
						"POSITION":0,
						"NORMAL":1,
						"TEXCOORD_0":2
					},
					"indices":3,
					"material":0
				}
			]
		}
	],
	"textures":[
		{
			"sampler":0,
			"source":0
		}
	],
	"images":[
		{
			"mimeType":"image/png",
			"name":"bottom_cab_texture_v3",
			"uri":"textures/bottom_cab_texture_v3.png"
		}
	],
	"accessors":[
		{
			"bufferView":0,
			"componentType":5126,
			"count":18123,
			"max":[
				10.96056079864502,
				5.523411750793457,
				8.037778854370117
			],
			"min":[
				-12.979009628295898,
				-0.625826358795166,
				-16.19161033630371
			],
			"type":"VEC3"
		},
		{
			"bufferView":1,
			"componentType":5126,
			"count":18123,
			"type":"VEC3"
		},
		{
			"bufferView":2,
			"componentType":5126,
			"count":18123,
			"type":"VEC2"
		},
		{
			"bufferView":3,
			"componentType":5123,
			"count":35496,
			"type":"SCALAR"
		}
	],
	"bufferViews":[
		{
			"buffer":0,
			"byteLength":217476,
			"byteOffset":0,
			"target":34962
		},
		{
			"buffer":0,
			"byteLength":217476,
			"byteOffset":217476,
			"target":34962
		},
		{
			"buffer":0,
			"byteLength":144984,
			"byteOffset":434952,
			"target":34962
		},
		{
			"buffer":0,
			"byteLength":70992,
			"byteOffset":579936,
			"target":34963
		}
	],
	"samplers":[
		{
			"magFilter":9729,
			"minFilter":9987
		}
	],
	"buffers":[
		{
			"byteLength":650928,
			"uri":"bottom_cabinet_v3.bin"
		}
	]
}
