{
	"asset":{
		"generator":"Khronos glTF Blender I/O v3.6.27",
		"version":"2.0"
	},
	"scene":0,
	"scenes":[
		{
			"name":"Scene",
			"nodes":[
				0
			]
		}
	],
	"nodes":[
		{
			"mesh":0,
			"name":"18",
			"translation":[
				13.230611801147461,
				-1.202618956565857,
				-7.144966125488281
			]
		}
	],
	"materials":[
		{
			"doubleSided":true,
			"name":"frontAll",
			"pbrMetallicRoughness":{
				"baseColorTexture":{
					"index":0
				},
				"metallicFactor":0,
				"roughnessFactor":0.5
			}
		}
	],
	"meshes":[
		{
			"name":"Cube.047",
			"primitives":[
				{
					"attributes":{
						"POSITION":0,
						"NORMAL":1,
						"TEXCOORD_0":2
					},
					"indices":3,
					"material":0
				}
			]
		}
	],
	"textures":[
		{
			"sampler":0,
			"source":0
		}
	],
	"images":[
		{
			"mimeType":"image/png",
			"name":"frontbake",
			"uri":"textures/frontbake.png"
		}
	],
	"accessors":[
		{
			"bufferView":0,
			"componentType":5126,
			"count":108160,
			"max":[
				0.024801669642329216,
				5.1703715324401855,
				8.117551803588867
			],
			"min":[
				-14.181060791015625,
				-2.73814058303833,
				-0.1582358479499817
			],
			"type":"VEC3"
		},
		{
			"bufferView":1,
			"componentType":5126,
			"count":108160,
			"type":"VEC3"
		},
		{
			"bufferView":2,
			"componentType":5126,
			"count":108160,
			"type":"VEC2"
		},
		{
			"bufferView":3,
			"componentType":5125,
			"count":175392,
			"type":"SCALAR"
		}
	],
	"bufferViews":[
		{
			"buffer":0,
			"byteLength":1297920,
			"byteOffset":0,
			"target":34962
		},
		{
			"buffer":0,
			"byteLength":1297920,
			"byteOffset":1297920,
			"target":34962
		},
		{
			"buffer":0,
			"byteLength":865280,
			"byteOffset":2595840,
			"target":34962
		},
		{
			"buffer":0,
			"byteLength":701568,
			"byteOffset":3461120,
			"target":34963
		}
	],
	"samplers":[
		{
			"magFilter":9729,
			"minFilter":9987
		}
	],
	"buffers":[
		{
			"byteLength":4162688,
			"uri":"cabinfront.bin"
		}
	]
}
