{
	"asset":{
		"generator":"Khronos glTF Blender I/O v3.6.27",
		"version":"2.0"
	},
	"scene":0,
	"scenes":[
		{
			"name":"Scene",
			"nodes":[
				0
			]
		}
	],
	"nodes":[
		{
			"mesh":0,
			"name":"17",
			"translation":[
				10.328201293945312,
				-1.2123032808303833,
				-7.14497184753418
			]
		}
	],
	"materials":[
		{
			"doubleSided":true,
			"name":"frontbake1All",
			"pbrMetallicRoughness":{
				"baseColorTexture":{
					"index":0
				},
				"metallicFactor":0,
				"roughnessFactor":0.5
			}
		}
	],
	"meshes":[
		{
			"name":"Cube.046",
			"primitives":[
				{
					"attributes":{
						"POSITION":0,
						"NORMAL":1,
						"TEXCOORD_0":2
					},
					"indices":3,
					"material":0
				}
			]
		}
	],
	"textures":[
		{
			"sampler":0,
			"source":0
		}
	],
	"images":[
		{
			"mimeType":"image/png",
			"name":"frontbake1",
			"uri":"textures/frontbake1.png"
		}
	],
	"accessors":[
		{
			"bufferView":0,
			"componentType":5126,
			"count":20676,
			"max":[
				2.9072370529174805,
				5.164717197418213,
				8.102218627929688
			],
			"min":[
				-11.265905380249023,
				-2.7096996307373047,
				-0.09937000274658203
			],
			"type":"VEC3"
		},
		{
			"bufferView":1,
			"componentType":5126,
			"count":20676,
			"type":"VEC3"
		},
		{
			"bufferView":2,
			"componentType":5126,
			"count":20676,
			"type":"VEC2"
		},
		{
			"bufferView":3,
			"componentType":5123,
			"count":38580,
			"type":"SCALAR"
		}
	],
	"bufferViews":[
		{
			"buffer":0,
			"byteLength":248112,
			"byteOffset":0,
			"target":34962
		},
		{
			"buffer":0,
			"byteLength":248112,
			"byteOffset":248112,
			"target":34962
		},
		{
			"buffer":0,
			"byteLength":165408,
			"byteOffset":496224,
			"target":34962
		},
		{
			"buffer":0,
			"byteLength":77160,
			"byteOffset":661632,
			"target":34963
		}
	],
	"samplers":[
		{
			"magFilter":9729,
			"minFilter":9987
		}
	],
	"buffers":[
		{
			"byteLength":738792,
			"uri":"cabinfrontw1.bin"
		}
	]
}
