{
	"asset":{
		"generator":"Khronos glTF Blender I/O v3.6.27",
		"version":"2.0"
	},
	"scene":0,
	"scenes":[
		{
			"name":"Scene",
			"nodes":[
				0
			]
		}
	],
	"nodes":[
		{
			"mesh":0,
			"name":"18",
			"translation":[
				13.230611801147461,
				-1.202618956565857,
				-7.144966125488281
			]
		}
	],
	"materials":[
		{
			"doubleSided":true,
			"name":"newwood",
			"pbrMetallicRoughness":{
				"baseColorTexture":{
					"index":0
				},
				"metallicFactor":0,
				"roughnessFactor":0.5
			}
		}
	],
	"meshes":[
		{
			"name":"Cube.047",
			"primitives":[
				{
					"attributes":{
						"POSITION":0,
						"NORMAL":1,
						"TEXCOORD_0":2
					},
					"indices":3,
					"material":0
				}
			]
		}
	],
	"textures":[
		{
			"sampler":0,
			"source":0
		}
	],
	"images":[
		{
			"mimeType":"image/jpeg",
			"name":"Baking",
			"uri":"textures/Baking.jpg"
		}
	],
	"accessors":[
		{
			"bufferView":0,
			"componentType":5126,
			"count":22870,
			"max":[
				0.04757976531982422,
				5.1977858543396,
				8.144966125488281
			],
			"min":[
				-14.230611801147461,
				-2.7621374130249023,
				-2.099977493286133
			],
			"type":"VEC3"
		},
		{
			"bufferView":1,
			"componentType":5126,
			"count":22870,
			"type":"VEC3"
		},
		{
			"bufferView":2,
			"componentType":5126,
			"count":22870,
			"type":"VEC2"
		},
		{
			"bufferView":3,
			"componentType":5123,
			"count":42042,
			"type":"SCALAR"
		}
	],
	"bufferViews":[
		{
			"buffer":0,
			"byteLength":274440,
			"byteOffset":0,
			"target":34962
		},
		{
			"buffer":0,
			"byteLength":274440,
			"byteOffset":274440,
			"target":34962
		},
		{
			"buffer":0,
			"byteLength":182960,
			"byteOffset":548880,
			"target":34962
		},
		{
			"buffer":0,
			"byteLength":84084,
			"byteOffset":731840,
			"target":34963
		}
	],
	"samplers":[
		{
			"magFilter":9729,
			"minFilter":9987
		}
	],
	"buffers":[
		{
			"byteLength":815924,
			"uri":"cabinv4.bin"
		}
	]
}
