{
	"asset":{
		"generator":"Khronos glTF Blender I/O v3.6.27",
		"version":"2.0"
	},
	"scene":0,
	"scenes":[
		{
			"name":"Scene",
			"nodes":[
				0,
				1,
				2
			]
		}
	],
	"nodes":[
		{
			"name":"Cube.023",
			"rotation":[
				0.5,
				-0.5,
				-0.5,
				0.5
			],
			"scale":[
				0.012918914668262005,
				0.044756412506103516,
				0.012918914668262005
			],
			"translation":[
				11.867950439453125,
				7.11342716217041,
				-3.0060248374938965
			]
		},
		{
			"name":"Cube.001",
			"rotation":[
				0.5,
				-0.5,
				-0.5,
				0.5
			],
			"scale":[
				0.012918914668262005,
				0.044756412506103516,
				0.012918914668262005
			],
			"translation":[
				11.867950439453125,
				7.11342716217041,
				-3.0060248374938965
			]
		},
		{
			"mesh":0,
			"name":"Cube.002",
			"rotation":[
				0.5,
				-0.5,
				-0.5,
				0.4999999701976776
			],
			"scale":[
				0.009864209219813347,
				0.025766270235180855,
				0.007637240923941135
			],
			"translation":[
				11.867950439453125,
				7.11342716217041,
				-3.0060248374938965
			]
		}
	],
	"materials":[
		{
			"doubleSided":true,
			"name":"frontbake2All",
			"pbrMetallicRoughness":{
				"baseColorTexture":{
					"index":0
				},
				"metallicFactor":0,
				"roughnessFactor":0.5
			}
		}
	],
	"meshes":[
		{
			"name":"Cube.039",
			"primitives":[
				{
					"attributes":{
						"POSITION":0,
						"NORMAL":1,
						"TEXCOORD_0":2
					},
					"indices":3,
					"material":0
				}
			]
		}
	],
	"textures":[
		{
			"sampler":0,
			"source":0
		}
	],
	"images":[
		{
			"mimeType":"image/png",
			"name":"frontbake2",
			"uri":"textures/frontbake2.png"
		}
	],
	"accessors":[
		{
			"bufferView":0,
			"componentType":5126,
			"count":3746,
			"max":[
				3.349198579788208,
				110.73252868652344,
				7.4139862060546875
			],
			"min":[
				-6.409942150115967,
				-20.465843200683594,
				-105.85151672363281
			],
			"type":"VEC3"
		},
		{
			"bufferView":1,
			"componentType":5126,
			"count":3746,
			"type":"VEC3"
		},
		{
			"bufferView":2,
			"componentType":5126,
			"count":3746,
			"type":"VEC2"
		},
		{
			"bufferView":3,
			"componentType":5123,
			"count":6216,
			"type":"SCALAR"
		}
	],
	"bufferViews":[
		{
			"buffer":0,
			"byteLength":44952,
			"byteOffset":0,
			"target":34962
		},
		{
			"buffer":0,
			"byteLength":44952,
			"byteOffset":44952,
			"target":34962
		},
		{
			"buffer":0,
			"byteLength":29968,
			"byteOffset":89904,
			"target":34962
		},
		{
			"buffer":0,
			"byteLength":12432,
			"byteOffset":119872,
			"target":34963
		}
	],
	"samplers":[
		{
			"magFilter":9729,
			"minFilter":9987
		}
	],
	"buffers":[
		{
			"byteLength":132304,
			"uri":"cabinfrontw2.bin"
		}
	]
}
