{
	"asset":{
		"generator":"Khronos glTF Blender I/O v3.6.27",
		"version":"2.0"
	},
	"scene":0,
	"scenes":[
		{
			"name":"Scene",
			"nodes":[
				0
			]
		}
	],
	"nodes":[
		{
			"mesh":0,
			"name":"Main.001",
			"translation":[
				13.230611801147461,
				-1.202618956565857,
				-7.144966125488281
			]
		}
	],
	"materials":[
		{
			"doubleSided":true,
			"name":"Material.001",
			"pbrMetallicRoughness":{
				"baseColorTexture":{
					"index":0
				},
				"metallicFactor":0,
				"roughnessFactor":0.5
			}
		}
	],
	"meshes":[
		{
			"name":"Cube.002",
			"primitives":[
				{
					"attributes":{
						"POSITION":0,
						"NORMAL":1,
						"TEXCOORD_0":2
					},
					"indices":3,
					"material":0
				}
			]
		}
	],
	"textures":[
		{
			"sampler":0,
			"source":0
		}
	],
	"images":[
		{
			"mimeType":"image/png",
			"name":"backfragcabin",
			"uri":"textures/backfragcabin.png"
		}
	],
	"accessors":[
		{
			"bufferView":0,
			"componentType":5126,
			"count":1372,
			"max":[
				0.04757976531982422,
				5.198338508605957,
				8.144967079162598
			],
			"min":[
				-14.230611801147461,
				-2.7621374130249023,
				-2.099977493286133
			],
			"type":"VEC3"
		},
		{
			"bufferView":1,
			"componentType":5126,
			"count":1372,
			"type":"VEC3"
		},
		{
			"bufferView":2,
			"componentType":5126,
			"count":1372,
			"type":"VEC2"
		},
		{
			"bufferView":3,
			"componentType":5123,
			"count":2424,
			"type":"SCALAR"
		}
	],
	"bufferViews":[
		{
			"buffer":0,
			"byteLength":16464,
			"byteOffset":0,
			"target":34962
		},
		{
			"buffer":0,
			"byteLength":16464,
			"byteOffset":16464,
			"target":34962
		},
		{
			"buffer":0,
			"byteLength":10976,
			"byteOffset":32928,
			"target":34962
		},
		{
			"buffer":0,
			"byteLength":4848,
			"byteOffset":43904,
			"target":34963
		}
	],
	"samplers":[
		{
			"magFilter":9729,
			"minFilter":9987
		}
	],
	"buffers":[
		{
			"byteLength":48752,
			"uri":"cabinv5.bin"
		}
	]
}
