{
	"asset":{
		"generator":"Khronos glTF Blender I/O v3.6.27",
		"version":"2.0"
	},
	"scene":0,
	"scenes":[
		{
			"name":"Scene",
			"nodes":[
				0
			]
		}
	],
	"nodes":[
		{
			"mesh":0,
			"name":"Ceiling Light Mount.001"
		}
	],
	"materials":[
		{
			"doubleSided":true,
			"name":"CeilingLightAll",
			"pbrMetallicRoughness":{
				"baseColorTexture":{
					"index":0
				},
				"metallicFactor":0,
				"roughnessFactor":0.5
			}
		}
	],
	"meshes":[
		{
			"name":"Cylinder.060",
			"primitives":[
				{
					"attributes":{
						"POSITION":0,
						"NORMAL":1,
						"TEXCOORD_0":2
					},
					"indices":3,
					"material":0
				}
			]
		}
	],
	"textures":[
		{
			"sampler":0,
			"source":0
		}
	],
	"images":[
		{
			"mimeType":"image/png",
			"name":"ceiling_light_texture",
			"uri":"textures/ceiling_light_texture.png"
		}
	],
	"accessors":[
		{
			"bufferView":0,
			"componentType":5126,
			"count":840,
			"max":[
				16.125158309936523,
				29.524404525756836,
				2.4765737056732178
			],
			"min":[
				10.772059440612793,
				23.87259864807129,
				-2.871415615081787
			],
			"type":"VEC3"
		},
		{
			"bufferView":1,
			"componentType":5126,
			"count":840,
			"type":"VEC3"
		},
		{
			"bufferView":2,
			"componentType":5126,
			"count":840,
			"type":"VEC2"
		},
		{
			"bufferView":3,
			"componentType":5123,
			"count":1350,
			"type":"SCALAR"
		}
	],
	"bufferViews":[
		{
			"buffer":0,
			"byteLength":10080,
			"byteOffset":0,
			"target":34962
		},
		{
			"buffer":0,
			"byteLength":10080,
			"byteOffset":10080,
			"target":34962
		},
		{
			"buffer":0,
			"byteLength":6720,
			"byteOffset":20160,
			"target":34962
		},
		{
			"buffer":0,
			"byteLength":2700,
			"byteOffset":26880,
			"target":34963
		}
	],
	"samplers":[
		{
			"magFilter":9729,
			"minFilter":9987
		}
	],
	"buffers":[
		{
			"byteLength":29580,
			"uri":"ceiling_light.bin"
		}
	]
}
