{
	"asset":{
		"generator":"Khronos glTF Blender I/O v3.6.27",
		"version":"2.0"
	},
	"scene":0,
	"scenes":[
		{
			"name":"Scene",
			"nodes":[
				0
			]
		}
	],
	"nodes":[
		{
			"mesh":0,
			"name":"Ceiling Light Bulb.001"
		}
	],
	"materials":[
		{
			"doubleSided":true,
			"name":"CeilingLightBulbAll",
			"pbrMetallicRoughness":{
				"baseColorTexture":{
					"index":0
				},
				"metallicFactor":0,
				"roughnessFactor":0.5
			}
		}
	],
	"meshes":[
		{
			"name":"Sphere.006",
			"primitives":[
				{
					"attributes":{
						"POSITION":0,
						"NORMAL":1,
						"TEXCOORD_0":2
					},
					"indices":3,
					"material":0
				}
			]
		}
	],
	"textures":[
		{
			"sampler":0,
			"source":0
		}
	],
	"images":[
		{
			"mimeType":"image/png",
			"name":"ceiling_lightbulb_texture",
			"uri":"textures/ceiling_lightbulb_texture.png"
		}
	],
	"accessors":[
		{
			"bufferView":0,
			"componentType":5126,
			"count":1600,
			"max":[
				13.886651039123535,
				24.21491050720215,
				0.28872090578079224
			],
			"min":[
				13.004244804382324,
				23.326025009155273,
				-0.59368497133255
			],
			"type":"VEC3"
		},
		{
			"bufferView":1,
			"componentType":5126,
			"count":1600,
			"type":"VEC3"
		},
		{
			"bufferView":2,
			"componentType":5126,
			"count":1600,
			"type":"VEC2"
		},
		{
			"bufferView":3,
			"componentType":5123,
			"count":2304,
			"type":"SCALAR"
		}
	],
	"bufferViews":[
		{
			"buffer":0,
			"byteLength":19200,
			"byteOffset":0,
			"target":34962
		},
		{
			"buffer":0,
			"byteLength":19200,
			"byteOffset":19200,
			"target":34962
		},
		{
			"buffer":0,
			"byteLength":12800,
			"byteOffset":38400,
			"target":34962
		},
		{
			"buffer":0,
			"byteLength":4608,
			"byteOffset":51200,
			"target":34963
		}
	],
	"samplers":[
		{
			"magFilter":9729,
			"minFilter":9987
		}
	],
	"buffers":[
		{
			"byteLength":55808,
			"uri":"ceiling_light_bulb.bin"
		}
	]
}
