{
	"asset":{
		"generator":"Khronos glTF Blender I/O v3.6.28",
		"version":"2.0"
	},
	"scene":0,
	"scenes":[
		{
			"name":"Scene",
			"nodes":[
				0
			]
		}
	],
	"nodes":[
		{
			"mesh":0,
			"name":"Seat"
		}
	],
	"materials":[
		{
			"doubleSided":true,
			"name":"ChairFrame",
			"pbrMetallicRoughness":{
				"baseColorTexture":{
					"index":0
				},
				"metallicFactor":0,
				"roughnessFactor":0.5
			}
		}
	],
	"meshes":[
		{
			"name":"Cube.001",
			"primitives":[
				{
					"attributes":{
						"POSITION":0,
						"NORMAL":1,
						"TEXCOORD_0":2
					},
					"indices":3,
					"material":0
				}
			]
		}
	],
	"textures":[
		{
			"sampler":0,
			"source":0
		}
	],
	"images":[
		{
			"mimeType":"image/png",
			"name":"chair_texture",
			"uri":"textures/chair_texture.png"
		}
	],
	"accessors":[
		{
			"bufferView":0,
			"componentType":5126,
			"count":11312,
			"max":[
				0.9220151901245117,
				2.327803611755371,
				0.7104517221450806
			],
			"min":[
				-0.9445981979370117,
				2.1576881408691406e-05,
				-1.2516350746154785
			],
			"type":"VEC3"
		},
		{
			"bufferView":1,
			"componentType":5126,
			"count":11312,
			"type":"VEC3"
		},
		{
			"bufferView":2,
			"componentType":5126,
			"count":11312,
			"type":"VEC2"
		},
		{
			"bufferView":3,
			"componentType":5123,
			"count":48720,
			"type":"SCALAR"
		}
	],
	"bufferViews":[
		{
			"buffer":0,
			"byteLength":135744,
			"byteOffset":0,
			"target":34962
		},
		{
			"buffer":0,
			"byteLength":135744,
			"byteOffset":135744,
			"target":34962
		},
		{
			"buffer":0,
			"byteLength":90496,
			"byteOffset":271488,
			"target":34962
		},
		{
			"buffer":0,
			"byteLength":97440,
			"byteOffset":361984,
			"target":34963
		}
	],
	"samplers":[
		{
			"magFilter":9729,
			"minFilter":9987
		}
	],
	"buffers":[
		{
			"byteLength":459424,
			"uri":"chairs.bin"
		}
	]
}
