{
	"asset":{
		"generator":"Khronos glTF Blender I/O v3.6.27",
		"version":"2.0"
	},
	"scene":0,
	"scenes":[
		{
			"name":"Scene",
			"nodes":[
				0
			]
		}
	],
	"nodes":[
		{
			"mesh":0,
			"name":"Circle.013",
			"translation":[
				0,
				0,
				-1.5910247564315796
			]
		}
	],
	"materials":[
		{
			"doubleSided":true,
			"name":"CookerAll",
			"pbrMetallicRoughness":{
				"baseColorTexture":{
					"index":0
				},
				"metallicFactor":0,
				"roughnessFactor":0.5
			}
		}
	],
	"meshes":[
		{
			"name":"Circle.021",
			"primitives":[
				{
					"attributes":{
						"POSITION":0,
						"NORMAL":1,
						"TEXCOORD_0":2
					},
					"indices":3,
					"material":0
				}
			]
		}
	],
	"textures":[
		{
			"sampler":0,
			"source":0
		}
	],
	"images":[
		{
			"mimeType":"image/png",
			"name":"cooker_texture",
			"uri":"textures/cooker_texture.png"
		}
	],
	"accessors":[
		{
			"bufferView":0,
			"componentType":5126,
			"count":10859,
			"max":[
				-7.407078742980957,
				6.235484600067139,
				3.526028871536255
			],
			"min":[
				-11.648727416992188,
				5.520447731018066,
				-3.211805582046509
			],
			"type":"VEC3"
		},
		{
			"bufferView":1,
			"componentType":5126,
			"count":10859,
			"type":"VEC3"
		},
		{
			"bufferView":2,
			"componentType":5126,
			"count":10859,
			"type":"VEC2"
		},
		{
			"bufferView":3,
			"componentType":5123,
			"count":19980,
			"type":"SCALAR"
		}
	],
	"bufferViews":[
		{
			"buffer":0,
			"byteLength":130308,
			"byteOffset":0,
			"target":34962
		},
		{
			"buffer":0,
			"byteLength":130308,
			"byteOffset":130308,
			"target":34962
		},
		{
			"buffer":0,
			"byteLength":86872,
			"byteOffset":260616,
			"target":34962
		},
		{
			"buffer":0,
			"byteLength":39960,
			"byteOffset":347488,
			"target":34963
		}
	],
	"samplers":[
		{
			"magFilter":9729,
			"minFilter":9987
		}
	],
	"buffers":[
		{
			"byteLength":387448,
			"uri":"cooker_stove.bin"
		}
	]
}
