{
	"asset":{
		"generator":"Khronos glTF Blender I/O v3.6.28",
		"version":"2.0"
	},
	"scene":0,
	"scenes":[
		{
			"name":"Scene",
			"nodes":[
				0
			]
		}
	],
	"nodes":[
		{
			"mesh":0,
			"name":"Cup"
		}
	],
	"materials":[
		{
			"doubleSided":true,
			"name":"CupFrameAll",
			"pbrMetallicRoughness":{
				"baseColorTexture":{
					"index":0
				},
				"metallicFactor":0,
				"roughnessFactor":0.5
			}
		}
	],
	"meshes":[
		{
			"name":"Cylinder.001",
			"primitives":[
				{
					"attributes":{
						"POSITION":0,
						"NORMAL":1,
						"TEXCOORD_0":2
					},
					"indices":3,
					"material":0
				}
			]
		}
	],
	"textures":[
		{
			"sampler":0,
			"source":0
		}
	],
	"images":[
		{
			"mimeType":"image/png",
			"name":"cup_texture",
			"uri":"textures/cup_texture.png"
		}
	],
	"accessors":[
		{
			"bufferView":0,
			"componentType":5126,
			"count":1831,
			"max":[
				2.6200053691864014,
				3.299380302429199,
				1.4331783056259155
			],
			"min":[
				-1.433178186416626,
				0.04760539531707764,
				-1.433178186416626
			],
			"type":"VEC3"
		},
		{
			"bufferView":1,
			"componentType":5126,
			"count":1831,
			"type":"VEC3"
		},
		{
			"bufferView":2,
			"componentType":5126,
			"count":1831,
			"type":"VEC2"
		},
		{
			"bufferView":3,
			"componentType":5123,
			"count":8064,
			"type":"SCALAR"
		}
	],
	"bufferViews":[
		{
			"buffer":0,
			"byteLength":21972,
			"byteOffset":0,
			"target":34962
		},
		{
			"buffer":0,
			"byteLength":21972,
			"byteOffset":21972,
			"target":34962
		},
		{
			"buffer":0,
			"byteLength":14648,
			"byteOffset":43944,
			"target":34962
		},
		{
			"buffer":0,
			"byteLength":16128,
			"byteOffset":58592,
			"target":34963
		}
	],
	"samplers":[
		{
			"magFilter":9729,
			"minFilter":9987
		}
	],
	"buffers":[
		{
			"byteLength":74720,
			"uri":"cup.bin"
		}
	]
}
