{
	"asset":{
		"generator":"Khronos glTF Blender I/O v3.6.28",
		"version":"2.0"
	},
	"scene":0,
	"scenes":[
		{
			"name":"Scene",
			"nodes":[
				0
			]
		}
	],
	"nodes":[
		{
			"mesh":0,
			"name":"Dish"
		}
	],
	"materials":[
		{
			"doubleSided":true,
			"name":"DishFrame",
			"pbrMetallicRoughness":{
				"baseColorTexture":{
					"index":0
				},
				"metallicFactor":0,
				"roughnessFactor":0.5
			}
		}
	],
	"meshes":[
		{
			"name":"Sphere.001",
			"primitives":[
				{
					"attributes":{
						"POSITION":0,
						"NORMAL":1,
						"TEXCOORD_0":2
					},
					"indices":3,
					"material":0
				}
			]
		}
	],
	"textures":[
		{
			"sampler":0,
			"source":0
		}
	],
	"images":[
		{
			"mimeType":"image/png",
			"name":"dish_texture",
			"uri":"textures/dish_texture.png"
		}
	],
	"accessors":[
		{
			"bufferView":0,
			"componentType":5126,
			"count":6392,
			"max":[
				0.7003346085548401,
				0.40408122539520264,
				0.7003344893455505
			],
			"min":[
				-0.7003344297409058,
				0.18185144662857056,
				-0.7003344893455505
			],
			"type":"VEC3"
		},
		{
			"bufferView":1,
			"componentType":5126,
			"count":6392,
			"type":"VEC3"
		},
		{
			"bufferView":2,
			"componentType":5126,
			"count":6392,
			"type":"VEC2"
		},
		{
			"bufferView":3,
			"componentType":5123,
			"count":35328,
			"type":"SCALAR"
		}
	],
	"bufferViews":[
		{
			"buffer":0,
			"byteLength":76704,
			"byteOffset":0,
			"target":34962
		},
		{
			"buffer":0,
			"byteLength":76704,
			"byteOffset":76704,
			"target":34962
		},
		{
			"buffer":0,
			"byteLength":51136,
			"byteOffset":153408,
			"target":34962
		},
		{
			"buffer":0,
			"byteLength":70656,
			"byteOffset":204544,
			"target":34963
		}
	],
	"samplers":[
		{
			"magFilter":9729,
			"minFilter":9987
		}
	],
	"buffers":[
		{
			"byteLength":275200,
			"uri":"Dish.bin"
		}
	]
}
