{
	"asset":{
		"generator":"Khronos glTF Blender I/O v3.6.27",
		"version":"2.0"
	},
	"scene":0,
	"scenes":[
		{
			"name":"Scene",
			"nodes":[
				0
			]
		}
	],
	"nodes":[
		{
			"mesh":0,
			"name":"cadre.004"
		}
	],
	"materials":[
		{
			"doubleSided":true,
			"name":"DoorAll",
			"pbrMetallicRoughness":{
				"baseColorTexture":{
					"index":0
				},
				"metallicFactor":0,
				"roughnessFactor":0.5
			}
		}
	],
	"meshes":[
		{
			"name":"Cube.081",
			"primitives":[
				{
					"attributes":{
						"POSITION":0,
						"NORMAL":1,
						"TEXCOORD_0":2
					},
					"indices":3,
					"material":0
				}
			]
		}
	],
	"textures":[
		{
			"sampler":0,
			"source":0
		}
	],
	"images":[
		{
			"mimeType":"image/png",
			"name":"door_texture",
			"uri":"textures/door_texture.png"
		}
	],
	"accessors":[
		{
			"bufferView":0,
			"componentType":5126,
			"count":177138,
			"max":[
				-11.852743148803711,
				21.39156723022461,
				25.22226905822754
			],
			"min":[
				-14.598844528198242,
				-0.9077697396278381,
				13.745782852172852
			],
			"type":"VEC3"
		},
		{
			"bufferView":1,
			"componentType":5126,
			"count":177138,
			"type":"VEC3"
		},
		{
			"bufferView":2,
			"componentType":5126,
			"count":177138,
			"type":"VEC2"
		},
		{
			"bufferView":3,
			"componentType":5125,
			"count":185418,
			"type":"SCALAR"
		}
	],
	"bufferViews":[
		{
			"buffer":0,
			"byteLength":2125656,
			"byteOffset":0,
			"target":34962
		},
		{
			"buffer":0,
			"byteLength":2125656,
			"byteOffset":2125656,
			"target":34962
		},
		{
			"buffer":0,
			"byteLength":1417104,
			"byteOffset":4251312,
			"target":34962
		},
		{
			"buffer":0,
			"byteLength":741672,
			"byteOffset":5668416,
			"target":34963
		}
	],
	"samplers":[
		{
			"magFilter":9729,
			"minFilter":9987
		}
	],
	"buffers":[
		{
			"byteLength":6410088,
			"uri":"door.bin"
		}
	]
}
