{
	"asset":{
		"generator":"Khronos glTF Blender I/O v3.6.27",
		"version":"2.0"
	},
	"scene":0,
	"scenes":[
		{
			"name":"Scene",
			"nodes":[
				0
			]
		}
	],
	"nodes":[
		{
			"mesh":0,
			"name":"Cylinder.033",
			"rotation":[
				-0.012340712361037731,
				-0.7053843140602112,
				-0.7069990634918213,
				0.049325279891490936
			],
			"scale":[
				0.009999999776482582,
				0.07999999821186066,
				0.009999998845160007
			],
			"translation":[
				13.57681941986084,
				2.3719863891601562,
				-11.651214599609375
			]
		}
	],
	"materials":[
		{
			"doubleSided":true,
			"name":"Material.005",
			"pbrMetallicRoughness":{
				"baseColorFactor":[
					0.03922152891755104,
					0.03922152891755104,
					0.03922152891755104,
					1
				],
				"roughnessFactor":0.5
			}
		}
	],
	"meshes":[
		{
			"name":"Cylinder.054",
			"primitives":[
				{
					"attributes":{
						"POSITION":0,
						"NORMAL":1,
						"TEXCOORD_0":2
					},
					"indices":3,
					"material":0
				}
			]
		}
	],
	"accessors":[
		{
			"bufferView":0,
			"componentType":5126,
			"count":944,
			"max":[
				215.89682006835938,
				13.895444869995117,
				113.72711181640625
			],
			"min":[
				-8.96209716796875,
				-12.343290328979492,
				-300.5159912109375
			],
			"type":"VEC3"
		},
		{
			"bufferView":1,
			"componentType":5126,
			"count":944,
			"type":"VEC3"
		},
		{
			"bufferView":2,
			"componentType":5126,
			"count":944,
			"type":"VEC2"
		},
		{
			"bufferView":3,
			"componentType":5123,
			"count":1764,
			"type":"SCALAR"
		}
	],
	"bufferViews":[
		{
			"buffer":0,
			"byteLength":11328,
			"byteOffset":0,
			"target":34962
		},
		{
			"buffer":0,
			"byteLength":11328,
			"byteOffset":11328,
			"target":34962
		},
		{
			"buffer":0,
			"byteLength":7552,
			"byteOffset":22656,
			"target":34962
		},
		{
			"buffer":0,
			"byteLength":3528,
			"byteOffset":30208,
			"target":34963
		}
	],
	"buffers":[
		{
			"byteLength":33736,
			"uri":"dustbin.bin"
		}
	]
}
