{
	"asset":{
		"generator":"Khronos glTF Blender I/O v3.6.27",
		"version":"2.0"
	},
	"scene":0,
	"scenes":[
		{
			"name":"Scene",
			"nodes":[
				0
			]
		}
	],
	"nodes":[
		{
			"mesh":0,
			"name":"DoorSeal",
			"scale":[
				3.1839239597320557,
				3.1839239597320557,
				3.1839239597320557
			],
			"translation":[
				25.90544891357422,
				9.764723777770996,
				-10.85263442993164
			]
		}
	],
	"materials":[
		{
			"doubleSided":true,
			"name":"Material.035",
			"pbrMetallicRoughness":{
				"baseColorTexture":{
					"index":0
				},
				"metallicFactor":0,
				"roughnessFactor":0.5
			}
		}
	],
	"meshes":[
		{
			"name":"Mesh",
			"primitives":[
				{
					"attributes":{
						"POSITION":0,
						"NORMAL":1,
						"TEXCOORD_0":2
					},
					"indices":3,
					"material":0
				}
			]
		}
	],
	"textures":[
		{
			"sampler":0,
			"source":0
		}
	],
	"images":[
		{
			"mimeType":"image/png",
			"name":"fridge",
			"uri":"fridge/fridge.png"
		}
	],
	"accessors":[
		{
			"bufferView":0,
			"componentType":5126,
			"count":40464,
			"max":[
				1.1463502645492554,
				3.2520253658294678,
				10.852701187133789
			],
			"min":[
				-12.554512023925781,
				-3.2520253658294678,
				-1.645119547843933
			],
			"type":"VEC3"
		},
		{
			"bufferView":1,
			"componentType":5126,
			"count":40464,
			"type":"VEC3"
		},
		{
			"bufferView":2,
			"componentType":5126,
			"count":40464,
			"type":"VEC2"
		},
		{
			"bufferView":3,
			"componentType":5123,
			"count":116550,
			"type":"SCALAR"
		}
	],
	"bufferViews":[
		{
			"buffer":0,
			"byteLength":485568,
			"byteOffset":0,
			"target":34962
		},
		{
			"buffer":0,
			"byteLength":485568,
			"byteOffset":485568,
			"target":34962
		},
		{
			"buffer":0,
			"byteLength":323712,
			"byteOffset":971136,
			"target":34962
		},
		{
			"buffer":0,
			"byteLength":233100,
			"byteOffset":1294848,
			"target":34963
		}
	],
	"samplers":[
		{
			"magFilter":9729,
			"minFilter":9987
		}
	],
	"buffers":[
		{
			"byteLength":1527948,
			"uri":"fridge.bin"
		}
	]
}
