{
	"asset":{
		"generator":"Khronos glTF Blender I/O v3.6.28",
		"version":"2.0"
	},
	"scene":0,
	"scenes":[
		{
			"name":"Scene",
			"nodes":[
				0
			]
		}
	],
	"nodes":[
		{
			"mesh":0,
			"name":"FridgeDoor"
		}
	],
	"materials":[
		{
			"doubleSided":true,
			"name":"FDoorFrame",
			"pbrMetallicRoughness":{
				"baseColorTexture":{
					"index":0
				},
				"metallicFactor":0,
				"roughnessFactor":0.5
			}
		}
	],
	"meshes":[
		{
			"name":"Cube.003",
			"primitives":[
				{
					"attributes":{
						"POSITION":0,
						"NORMAL":1,
						"TEXCOORD_0":2
					},
					"indices":3,
					"material":0
				}
			]
		}
	],
	"textures":[
		{
			"sampler":0,
			"source":0
		}
	],
	"images":[
		{
			"mimeType":"image/png",
			"name":"fridgeDoor_texture",
			"uri":"textures/fridgeDoor_texture.png"
		}
	],
	"accessors":[
		{
			"bufferView":0,
			"componentType":5126,
			"count":4548,
			"max":[
				0.09601390361785889,
				6.604874610900879,
				0.6591129302978516
			],
			"min":[
				-2.1833341121673584,
				0.10172057151794434,
				-0.004671663045883179
			],
			"type":"VEC3"
		},
		{
			"bufferView":1,
			"componentType":5126,
			"count":4548,
			"type":"VEC3"
		},
		{
			"bufferView":2,
			"componentType":5126,
			"count":4548,
			"type":"VEC2"
		},
		{
			"bufferView":3,
			"componentType":5123,
			"count":22122,
			"type":"SCALAR"
		}
	],
	"bufferViews":[
		{
			"buffer":0,
			"byteLength":54576,
			"byteOffset":0,
			"target":34962
		},
		{
			"buffer":0,
			"byteLength":54576,
			"byteOffset":54576,
			"target":34962
		},
		{
			"buffer":0,
			"byteLength":36384,
			"byteOffset":109152,
			"target":34962
		},
		{
			"buffer":0,
			"byteLength":44244,
			"byteOffset":145536,
			"target":34963
		}
	],
	"samplers":[
		{
			"magFilter":9729,
			"minFilter":9987
		}
	],
	"buffers":[
		{
			"byteLength":189780,
			"uri":"fridge_door.bin"
		}
	]
}
