{
	"asset":{
		"generator":"Khronos glTF Blender I/O v3.6.28",
		"version":"2.0"
	},
	"scene":0,
	"scenes":[
		{
			"name":"Scene",
			"nodes":[
				0
			]
		}
	],
	"nodes":[
		{
			"mesh":0,
			"name":"FridgeBody"
		}
	],
	"materials":[
		{
			"doubleSided":true,
			"name":"FridgeBFrame",
			"pbrMetallicRoughness":{
				"baseColorTexture":{
					"index":0
				},
				"metallicFactor":0,
				"roughnessFactor":0.5
			}
		}
	],
	"meshes":[
		{
			"name":"Cube.002",
			"primitives":[
				{
					"attributes":{
						"POSITION":0,
						"NORMAL":1,
						"TEXCOORD_0":2
					},
					"indices":3,
					"material":0
				}
			]
		}
	],
	"textures":[
		{
			"sampler":0,
			"source":0
		}
	],
	"images":[
		{
			"mimeType":"image/png",
			"name":"fridgeBody_texture",
			"uri":"textures/fridgeBody_texture.png"
		}
	],
	"accessors":[
		{
			"bufferView":0,
			"componentType":5126,
			"count":5139,
			"max":[
				1.207525610923767,
				6.693778991699219,
				1.1622304916381836
			],
			"min":[
				-1.0851749181747437,
				0.1897280216217041,
				-1.6451201438903809
			],
			"type":"VEC3"
		},
		{
			"bufferView":1,
			"componentType":5126,
			"count":5139,
			"type":"VEC3"
		},
		{
			"bufferView":2,
			"componentType":5126,
			"count":5139,
			"type":"VEC2"
		},
		{
			"bufferView":3,
			"componentType":5123,
			"count":27360,
			"type":"SCALAR"
		}
	],
	"bufferViews":[
		{
			"buffer":0,
			"byteLength":61668,
			"byteOffset":0,
			"target":34962
		},
		{
			"buffer":0,
			"byteLength":61668,
			"byteOffset":61668,
			"target":34962
		},
		{
			"buffer":0,
			"byteLength":41112,
			"byteOffset":123336,
			"target":34962
		},
		{
			"buffer":0,
			"byteLength":54720,
			"byteOffset":164448,
			"target":34963
		}
	],
	"samplers":[
		{
			"magFilter":9729,
			"minFilter":9987
		}
	],
	"buffers":[
		{
			"byteLength":219168,
			"uri":"fridge_body.bin"
		}
	]
}
