{
	"asset":{
		"generator":"Khronos glTF Blender I/O v3.6.27",
		"version":"2.0"
	},
	"scene":0,
	"scenes":[
		{
			"name":"Scene",
			"nodes":[
				0
			]
		}
	],
	"nodes":[
		{
			"mesh":0,
			"name":"Kettle 1"
		}
	],
	"materials":[
		{
			"doubleSided":true,
			"name":"KettleAll",
			"pbrMetallicRoughness":{
				"baseColorTexture":{
					"index":0
				},
				"metallicFactor":0,
				"roughnessFactor":0.5
			}
		}
	],
	"meshes":[
		{
			"name":"Cylinder.002",
			"primitives":[
				{
					"attributes":{
						"POSITION":0,
						"NORMAL":1,
						"TEXCOORD_0":2
					},
					"indices":3,
					"material":0
				}
			]
		}
	],
	"textures":[
		{
			"sampler":0,
			"source":0
		}
	],
	"images":[
		{
			"mimeType":"image/png",
			"name":"kettle_texture",
			"uri":"textures/kettle_texture.png"
		}
	],
	"accessors":[
		{
			"bufferView":0,
			"componentType":5126,
			"count":32287,
			"max":[
				2.322283983230591,
				4.846925735473633,
				1.1132020950317383
			],
			"min":[
				-1.314340353012085,
				0.016902685165405273,
				-1.6436593532562256
			],
			"type":"VEC3"
		},
		{
			"bufferView":1,
			"componentType":5126,
			"count":32287,
			"type":"VEC3"
		},
		{
			"bufferView":2,
			"componentType":5126,
			"count":32287,
			"type":"VEC2"
		},
		{
			"bufferView":3,
			"componentType":5123,
			"count":107316,
			"type":"SCALAR"
		}
	],
	"bufferViews":[
		{
			"buffer":0,
			"byteLength":387444,
			"byteOffset":0,
			"target":34962
		},
		{
			"buffer":0,
			"byteLength":387444,
			"byteOffset":387444,
			"target":34962
		},
		{
			"buffer":0,
			"byteLength":258296,
			"byteOffset":774888,
			"target":34962
		},
		{
			"buffer":0,
			"byteLength":214632,
			"byteOffset":1033184,
			"target":34963
		}
	],
	"samplers":[
		{
			"magFilter":9729,
			"minFilter":9987
		}
	],
	"buffers":[
		{
			"byteLength":1247816,
			"uri":"kettle.bin"
		}
	]
}
