{
	"asset":{
		"generator":"Khronos glTF Blender I/O v3.6.27",
		"version":"2.0"
	},
	"extensionsUsed":[
		"KHR_materials_specular",
		"KHR_materials_ior"
	],
	"scene":0,
	"scenes":[
		{
			"name":"Scene",
			"nodes":[
				0
			]
		}
	],
	"nodes":[
		{
			"mesh":0,
			"name":"Sphere.003",
			"scale":[
				1.5912396907806396,
				1.5912396907806396,
				1.5912396907806396
			],
			"translation":[
				5.751339435577393,
				6.890819549560547,
				7.968335151672363
			]
		}
	],
	"materials":[
		{
			"doubleSided":true,
			"extensions":{
				"KHR_materials_specular":{
					"specularColorFactor":[
						2.371357614441398,
						2.371357614441398,
						2.371357614441398
					]
				},
				"KHR_materials_ior":{
					"ior":1.4500000476837158
				}
			},
			"name":"CeramicWhite",
			"pbrMetallicRoughness":{
				"baseColorFactor":[
					0.800000011920929,
					0.800000011920929,
					0.800000011920929,
					1
				],
				"metallicFactor":0,
				"roughnessFactor":0.05000000074505806
			}
		}
	],
	"meshes":[
		{
			"name":"Sphere.003",
			"primitives":[
				{
					"attributes":{
						"POSITION":0,
						"NORMAL":1,
						"TEXCOORD_0":2
					},
					"indices":3,
					"material":0
				}
			]
		}
	],
	"accessors":[
		{
			"bufferView":0,
			"componentType":5126,
			"count":6392,
			"max":[
				0.7003346085548401,
				-0.7016501426696777,
				0.7003344893455505
			],
			"min":[
				-0.7003344297409058,
				-0.9238799214363098,
				-0.7003344893455505
			],
			"type":"VEC3"
		},
		{
			"bufferView":1,
			"componentType":5126,
			"count":6392,
			"type":"VEC3"
		},
		{
			"bufferView":2,
			"componentType":5126,
			"count":6392,
			"type":"VEC2"
		},
		{
			"bufferView":3,
			"componentType":5123,
			"count":35328,
			"type":"SCALAR"
		}
	],
	"bufferViews":[
		{
			"buffer":0,
			"byteLength":76704,
			"byteOffset":0,
			"target":34962
		},
		{
			"buffer":0,
			"byteLength":76704,
			"byteOffset":76704,
			"target":34962
		},
		{
			"buffer":0,
			"byteLength":51136,
			"byteOffset":153408,
			"target":34962
		},
		{
			"buffer":0,
			"byteLength":70656,
			"byteOffset":204544,
			"target":34963
		}
	],
	"buffers":[
		{
			"byteLength":275200,
			"uri":"plate.bin"
		}
	]
}
