{
	"asset":{
		"generator":"Khronos glTF Blender I/O v3.6.27",
		"version":"2.0"
	},
	"scene":0,
	"scenes":[
		{
			"name":"Scene",
			"nodes":[
				0
			]
		}
	],
	"nodes":[
		{
			"mesh":0,
			"name":"Sink"
		}
	],
	"materials":[
		{
			"doubleSided":true,
			"name":"SinkAll",
			"pbrMetallicRoughness":{
				"baseColorTexture":{
					"index":0
				},
				"metallicFactor":0,
				"roughnessFactor":0.5
			}
		}
	],
	"meshes":[
		{
			"name":"Cube.063",
			"primitives":[
				{
					"attributes":{
						"POSITION":0,
						"NORMAL":1,
						"TEXCOORD_0":2
					},
					"indices":3,
					"material":0
				}
			]
		}
	],
	"textures":[
		{
			"sampler":0,
			"source":0
		}
	],
	"images":[
		{
			"mimeType":"image/png",
			"name":"sink_texture",
			"uri":"textures/sink_texture.png"
		}
	],
	"accessors":[
		{
			"bufferView":0,
			"componentType":5126,
			"count":12115,
			"max":[
				6.444763660430908,
				7.644965171813965,
				-10.673337936401367
			],
			"min":[
				-3.3606581687927246,
				3.009186267852783,
				-15.137748718261719
			],
			"type":"VEC3"
		},
		{
			"bufferView":1,
			"componentType":5126,
			"count":12115,
			"type":"VEC3"
		},
		{
			"bufferView":2,
			"componentType":5126,
			"count":12115,
			"type":"VEC2"
		},
		{
			"bufferView":3,
			"componentType":5123,
			"count":43878,
			"type":"SCALAR"
		}
	],
	"bufferViews":[
		{
			"buffer":0,
			"byteLength":145380,
			"byteOffset":0,
			"target":34962
		},
		{
			"buffer":0,
			"byteLength":145380,
			"byteOffset":145380,
			"target":34962
		},
		{
			"buffer":0,
			"byteLength":96920,
			"byteOffset":290760,
			"target":34962
		},
		{
			"buffer":0,
			"byteLength":87756,
			"byteOffset":387680,
			"target":34963
		}
	],
	"samplers":[
		{
			"magFilter":9729,
			"minFilter":9987
		}
	],
	"buffers":[
		{
			"byteLength":475436,
			"uri":"sink_combined.bin"
		}
	]
}
