{
	"asset":{
		"generator":"Khronos glTF Blender I/O v3.6.27",
		"version":"2.0"
	},
	"scene":0,
	"scenes":[
		{
			"name":"Scene",
			"nodes":[
				0
			]
		}
	],
	"nodes":[
		{
			"mesh":0,
			"name":"Body.004"
		}
	],
	"materials":[
		{
			"doubleSided":true,
			"name":"BodyBAll",
			"pbrMetallicRoughness":{
				"baseColorTexture":{
					"index":0
				},
				"metallicFactor":0,
				"roughnessFactor":0.5
			}
		}
	],
	"meshes":[
		{
			"name":"Cylinder.010",
			"primitives":[
				{
					"attributes":{
						"POSITION":0,
						"NORMAL":1,
						"TEXCOORD_0":2
					},
					"indices":3,
					"material":0
				}
			]
		}
	],
	"textures":[
		{
			"sampler":0,
			"source":0
		}
	],
	"images":[
		{
			"mimeType":"image/png",
			"name":"storage_jar_body_b_texture",
			"uri":"textures/storage_jar_body_b_texture.png"
		}
	],
	"accessors":[
		{
			"bufferView":0,
			"componentType":5126,
			"count":5716,
			"max":[
				0.5541703104972839,
				1.7047059535980225,
				0.550000011920929
			],
			"min":[
				-0.5458298325538635,
				0.00013953447341918945,
				-0.550000011920929
			],
			"type":"VEC3"
		},
		{
			"bufferView":1,
			"componentType":5126,
			"count":5716,
			"type":"VEC3"
		},
		{
			"bufferView":2,
			"componentType":5126,
			"count":5716,
			"type":"VEC2"
		},
		{
			"bufferView":3,
			"componentType":5123,
			"count":22548,
			"type":"SCALAR"
		}
	],
	"bufferViews":[
		{
			"buffer":0,
			"byteLength":68592,
			"byteOffset":0,
			"target":34962
		},
		{
			"buffer":0,
			"byteLength":68592,
			"byteOffset":68592,
			"target":34962
		},
		{
			"buffer":0,
			"byteLength":45728,
			"byteOffset":137184,
			"target":34962
		},
		{
			"buffer":0,
			"byteLength":45096,
			"byteOffset":182912,
			"target":34963
		}
	],
	"samplers":[
		{
			"magFilter":9729,
			"minFilter":9987
		}
	],
	"buffers":[
		{
			"byteLength":228008,
			"uri":"storageJar_2_body.bin"
		}
	]
}
