{
	"asset":{
		"generator":"Khronos glTF Blender I/O v3.6.27",
		"version":"2.0"
	},
	"scene":0,
	"scenes":[
		{
			"name":"Scene",
			"nodes":[
				0
			]
		}
	],
	"nodes":[
		{
			"mesh":0,
			"name":"Plane",
			"scale":[
				0.1604631245136261,
				0.36288613080978394,
				0.36288613080978394
			],
			"translation":[
				2.177680015563965,
				-3.6494638919830322,
				0
			]
		}
	],
	"materials":[
		{
			"doubleSided":true,
			"name":"stoveframeall",
			"pbrMetallicRoughness":{
				"baseColorTexture":{
					"index":0
				},
				"metallicFactor":0,
				"roughnessFactor":0.5
			}
		}
	],
	"meshes":[
		{
			"name":"Plane",
			"primitives":[
				{
					"attributes":{
						"POSITION":0,
						"NORMAL":1,
						"TEXCOORD_0":2
					},
					"indices":3,
					"material":0
				}
			]
		}
	],
	"textures":[
		{
			"sampler":0,
			"source":0
		}
	],
	"images":[
		{
			"mimeType":"image/png",
			"name":"stove",
			"uri":"textures/stove.png"
		}
	],
	"accessors":[
		{
			"bufferView":0,
			"componentType":5126,
			"count":6608,
			"max":[
				2.111185073852539,
				0.9485393166542053,
				11.267102241516113
			],
			"min":[
				-29.92943000793457,
				-1.4398201704025269,
				-11.238537788391113
			],
			"type":"VEC3"
		},
		{
			"bufferView":1,
			"componentType":5126,
			"count":6608,
			"type":"VEC3"
		},
		{
			"bufferView":2,
			"componentType":5126,
			"count":6608,
			"type":"VEC2"
		},
		{
			"bufferView":3,
			"componentType":5123,
			"count":11520,
			"type":"SCALAR"
		}
	],
	"bufferViews":[
		{
			"buffer":0,
			"byteLength":79296,
			"byteOffset":0,
			"target":34962
		},
		{
			"buffer":0,
			"byteLength":79296,
			"byteOffset":79296,
			"target":34962
		},
		{
			"buffer":0,
			"byteLength":52864,
			"byteOffset":158592,
			"target":34962
		},
		{
			"buffer":0,
			"byteLength":23040,
			"byteOffset":211456,
			"target":34963
		}
	],
	"samplers":[
		{
			"magFilter":9729,
			"minFilter":9987
		}
	],
	"buffers":[
		{
			"byteLength":234496,
			"uri":"stove.bin"
		}
	]
}
