{
	"asset":{
		"generator":"Khronos glTF Blender I/O v3.6.27",
		"version":"2.0"
	},
	"extensionsUsed":[
		"KHR_materials_specular",
		"KHR_materials_ior",
		"KHR_materials_clearcoat",
		"KHR_materials_emissive_strength"
	],
	"scene":0,
	"scenes":[
		{
			"name":"Scene",
			"nodes":[
				0
			]
		}
	],
	"nodes":[
		{
			"mesh":0,
			"name":"Circle.006",
			"scale":[
				0.35391324758529663,
				1.180376410484314,
				0.31779366731643677
			],
			"translation":[
				-9.653168678283691,
				6.294200420379639,
				-1.5910247564315796
			]
		}
	],
	"materials":[
		{
			"doubleSided":true,
			"extensions":{
				"KHR_materials_specular":{
					"specularColorFactor":[
						1.1371737406931737,
						1.1371737406931737,
						1.1371737406931737
					]
				},
				"KHR_materials_ior":{
					"ior":1.4500000476837158
				}
			},
			"name":"Material.002",
			"pbrMetallicRoughness":{
				"baseColorFactor":[
					0.6164486408233643,
					0.6164486408233643,
					0.6164486408233643,
					1
				],
				"roughnessFactor":0.12536364793777466
			}
		},
		{
			"doubleSided":true,
			"extensions":{
				"KHR_materials_specular":{
					"specularColorFactor":[
						0.8730907734636705,
						0.8730907734636705,
						0.8730907734636705
					]
				},
				"KHR_materials_ior":{
					"ior":1.4500000476837158
				}
			},
			"name":"Material.006",
			"pbrMetallicRoughness":{
				"baseColorFactor":[
					0.017347218468785286,
					0.017347218468785286,
					0.017347218468785286,
					1
				],
				"metallicFactor":0.0931817889213562,
				"roughnessFactor":0.09354546666145325
			}
		},
		{
			"doubleSided":true,
			"extensions":{
				"KHR_materials_clearcoat":{
					"clearcoatFactor":1,
					"clearcoatRoughnessFactor":0.05000000074505806
				},
				"KHR_materials_specular":{
					"specularColorFactor":[
						2.2094701307655966,
						2.2094701307655966,
						2.2094701307655966
					]
				},
				"KHR_materials_ior":{
					"ior":1.4700000286102295
				}
			},
			"name":"Material.041",
			"pbrMetallicRoughness":{
				"baseColorFactor":[
					0,
					0,
					0,
					1
				],
				"metallicFactor":0,
				"roughnessFactor":0.05000000074505806
			}
		},
		{
			"doubleSided":true,
			"extensions":{
				"KHR_materials_specular":{
					"specularColorFactor":[
						0.8730907734636705,
						0.8730907734636705,
						0.8730907734636705
					]
				},
				"KHR_materials_ior":{
					"ior":1.4500000476837158
				}
			},
			"name":"Material.042",
			"pbrMetallicRoughness":{
				"baseColorFactor":[
					0.08571939170360565,
					0.08571939170360565,
					0.08571939170360565,
					1
				],
				"metallicFactor":0.5886363387107849,
				"roughnessFactor":0.09354546666145325
			}
		},
		{
			"doubleSided":true,
			"extensions":{
				"KHR_materials_specular":{
					"specularColorFactor":[
						1.1371737406931737,
						1.1371737406931737,
						1.1371737406931737
					]
				},
				"KHR_materials_ior":{
					"ior":1.4500000476837158
				}
			},
			"name":"Material.043",
			"pbrMetallicRoughness":{
				"baseColorFactor":[
					0.025883125141263008,
					0.025883125141263008,
					0.025883125141263008,
					1
				],
				"roughnessFactor":0.12536364793777466
			}
		},
		{
			"doubleSided":true,
			"emissiveFactor":[
				0.0424918495118618,
				0.03814156353473663,
				0.055175360292196274
			],
			"name":"Material.044",
			"pbrMetallicRoughness":{
				"baseColorFactor":[
					0,
					0,
					0,
					1
				]
			}
		},
		{
			"alphaMode":"BLEND",
			"doubleSided":true,
			"emissiveFactor":[
				1,
				1,
				1
			],
			"extensions":{
				"KHR_materials_emissive_strength":{
					"emissiveStrength":10.800000190734863
				}
			},
			"name":"fire",
			"pbrMetallicRoughness":{
				"baseColorFactor":[
					0,
					0,
					0,
					1
				]
			}
		}
	],
	"meshes":[
		{
			"name":"Circle.001",
			"primitives":[
				{
					"attributes":{
						"POSITION":0,
						"NORMAL":1,
						"TEXCOORD_0":2
					},
					"indices":3,
					"material":0
				},
				{
					"attributes":{
						"POSITION":4,
						"NORMAL":5,
						"TEXCOORD_0":6
					},
					"indices":7,
					"material":1
				},
				{
					"attributes":{
						"POSITION":8,
						"NORMAL":9,
						"TEXCOORD_0":10
					},
					"indices":11,
					"material":2
				},
				{
					"attributes":{
						"POSITION":12,
						"NORMAL":13,
						"TEXCOORD_0":14
					},
					"indices":15,
					"material":3
				},
				{
					"attributes":{
						"POSITION":16,
						"NORMAL":17,
						"TEXCOORD_0":18
					},
					"indices":19,
					"material":4
				},
				{
					"attributes":{
						"POSITION":20,
						"NORMAL":21,
						"TEXCOORD_0":22
					},
					"indices":23,
					"material":5
				},
				{
					"attributes":{
						"POSITION":24,
						"NORMAL":25,
						"TEXCOORD_0":26
					},
					"indices":27,
					"material":6
				}
			]
		}
	],
	"accessors":[
		{
			"bufferView":0,
			"componentType":5126,
			"count":4227,
			"max":[
				1,
				0.03432680666446686,
				11.538488388061523
			],
			"min":[
				-1.0000003576278687,
				-0.009593876078724861,
				-1
			],
			"type":"VEC3"
		},
		{
			"bufferView":1,
			"componentType":5126,
			"count":4227,
			"type":"VEC3"
		},
		{
			"bufferView":2,
			"componentType":5126,
			"count":4227,
			"type":"VEC2"
		},
		{
			"bufferView":3,
			"componentType":5123,
			"count":8460,
			"type":"SCALAR"
		},
		{
			"bufferView":4,
			"componentType":5126,
			"count":1536,
			"max":[
				6.522983551025391,
				-0.004172682762145996,
				7.402708053588867
			],
			"min":[
				5.526648044586182,
				-0.14241409301757812,
				2.6017637252807617
			],
			"type":"VEC3"
		},
		{
			"bufferView":5,
			"componentType":5126,
			"count":1536,
			"type":"VEC3"
		},
		{
			"bufferView":6,
			"componentType":5126,
			"count":1536,
			"type":"VEC2"
		},
		{
			"bufferView":7,
			"componentType":5123,
			"count":3072,
			"type":"SCALAR"
		},
		{
			"bufferView":8,
			"componentType":5126,
			"count":116,
			"max":[
				6.982021331787109,
				-0.09127368032932281,
				17.87228775024414
			],
			"min":[
				-7.54509162902832,
				-0.5941926836967468,
				-7.826728820800781
			],
			"type":"VEC3"
		},
		{
			"bufferView":9,
			"componentType":5126,
			"count":116,
			"type":"VEC3"
		},
		{
			"bufferView":10,
			"componentType":5126,
			"count":116,
			"type":"VEC2"
		},
		{
			"bufferView":11,
			"componentType":5123,
			"count":252,
			"type":"SCALAR"
		},
		{
			"bufferView":12,
			"componentType":5126,
			"count":1152,
			"max":[
				3.035068988800049,
				0.07170295715332031,
				13.970318794250488
			],
			"min":[
				-3.0350685119628906,
				-0.08838719874620438,
				-3.4318437576293945
			],
			"type":"VEC3"
		},
		{
			"bufferView":13,
			"componentType":5126,
			"count":1152,
			"type":"VEC3"
		},
		{
			"bufferView":14,
			"componentType":5126,
			"count":1152,
			"type":"VEC2"
		},
		{
			"bufferView":15,
			"componentType":5123,
			"count":1920,
			"type":"SCALAR"
		},
		{
			"bufferView":16,
			"componentType":5126,
			"count":3780,
			"max":[
				6.320555686950684,
				0.14006668329238892,
				17.5482177734375
			],
			"min":[
				-6.320555686950684,
				-0.2990865111351013,
				-7.038917541503906
			],
			"type":"VEC3"
		},
		{
			"bufferView":17,
			"componentType":5126,
			"count":3780,
			"type":"VEC3"
		},
		{
			"bufferView":18,
			"componentType":5126,
			"count":3780,
			"type":"VEC2"
		},
		{
			"bufferView":19,
			"componentType":5123,
			"count":6240,
			"type":"SCALAR"
		},
		{
			"bufferView":20,
			"componentType":5126,
			"count":24,
			"max":[
				6.478212833404541,
				-0.08544372022151947,
				6.148362636566162
			],
			"min":[
				5.5714192390441895,
				-0.15154491364955902,
				3.8645782470703125
			],
			"type":"VEC3"
		},
		{
			"bufferView":21,
			"componentType":5126,
			"count":24,
			"type":"VEC3"
		},
		{
			"bufferView":22,
			"componentType":5126,
			"count":24,
			"type":"VEC2"
		},
		{
			"bufferView":23,
			"componentType":5123,
			"count":36,
			"type":"SCALAR"
		},
		{
			"bufferView":24,
			"componentType":5126,
			"count":17382,
			"max":[
				1.5086246728897095,
				0.09801000356674194,
				12.168397903442383
			],
			"min":[
				-1.5171979665756226,
				-0.08243967592716217,
				-1.816640853881836
			],
			"type":"VEC3"
		},
		{
			"bufferView":25,
			"componentType":5126,
			"count":17382,
			"type":"VEC3"
		},
		{
			"bufferView":26,
			"componentType":5126,
			"count":17382,
			"type":"VEC2"
		},
		{
			"bufferView":27,
			"componentType":5123,
			"count":27720,
			"type":"SCALAR"
		}
	],
	"bufferViews":[
		{
			"buffer":0,
			"byteLength":50724,
			"byteOffset":0,
			"target":34962
		},
		{
			"buffer":0,
			"byteLength":50724,
			"byteOffset":50724,
			"target":34962
		},
		{
			"buffer":0,
			"byteLength":33816,
			"byteOffset":101448,
			"target":34962
		},
		{
			"buffer":0,
			"byteLength":16920,
			"byteOffset":135264,
			"target":34963
		},
		{
			"buffer":0,
			"byteLength":18432,
			"byteOffset":152184,
			"target":34962
		},
		{
			"buffer":0,
			"byteLength":18432,
			"byteOffset":170616,
			"target":34962
		},
		{
			"buffer":0,
			"byteLength":12288,
			"byteOffset":189048,
			"target":34962
		},
		{
			"buffer":0,
			"byteLength":6144,
			"byteOffset":201336,
			"target":34963
		},
		{
			"buffer":0,
			"byteLength":1392,
			"byteOffset":207480,
			"target":34962
		},
		{
			"buffer":0,
			"byteLength":1392,
			"byteOffset":208872,
			"target":34962
		},
		{
			"buffer":0,
			"byteLength":928,
			"byteOffset":210264,
			"target":34962
		},
		{
			"buffer":0,
			"byteLength":504,
			"byteOffset":211192,
			"target":34963
		},
		{
			"buffer":0,
			"byteLength":13824,
			"byteOffset":211696,
			"target":34962
		},
		{
			"buffer":0,
			"byteLength":13824,
			"byteOffset":225520,
			"target":34962
		},
		{
			"buffer":0,
			"byteLength":9216,
			"byteOffset":239344,
			"target":34962
		},
		{
			"buffer":0,
			"byteLength":3840,
			"byteOffset":248560,
			"target":34963
		},
		{
			"buffer":0,
			"byteLength":45360,
			"byteOffset":252400,
			"target":34962
		},
		{
			"buffer":0,
			"byteLength":45360,
			"byteOffset":297760,
			"target":34962
		},
		{
			"buffer":0,
			"byteLength":30240,
			"byteOffset":343120,
			"target":34962
		},
		{
			"buffer":0,
			"byteLength":12480,
			"byteOffset":373360,
			"target":34963
		},
		{
			"buffer":0,
			"byteLength":288,
			"byteOffset":385840,
			"target":34962
		},
		{
			"buffer":0,
			"byteLength":288,
			"byteOffset":386128,
			"target":34962
		},
		{
			"buffer":0,
			"byteLength":192,
			"byteOffset":386416,
			"target":34962
		},
		{
			"buffer":0,
			"byteLength":72,
			"byteOffset":386608,
			"target":34963
		},
		{
			"buffer":0,
			"byteLength":208584,
			"byteOffset":386680,
			"target":34962
		},
		{
			"buffer":0,
			"byteLength":208584,
			"byteOffset":595264,
			"target":34962
		},
		{
			"buffer":0,
			"byteLength":139056,
			"byteOffset":803848,
			"target":34962
		},
		{
			"buffer":0,
			"byteLength":55440,
			"byteOffset":942904,
			"target":34963
		}
	],
	"buffers":[
		{
			"byteLength":998344,
			"uri":"data:application/octet-stream;base64,"
		}
	]
}
