{
	"asset":{
		"generator":"Khronos glTF Blender I/O v3.6.28",
		"version":"2.0"
	},
	"scene":0,
	"scenes":[
		{
			"name":"Scene",
			"nodes":[
				0
			]
		}
	],
	"nodes":[
		{
			"mesh":0,
			"name":"TableTop"
		}
	],
	"materials":[
		{
			"doubleSided":true,
			"name":"TableFrame",
			"pbrMetallicRoughness":{
				"baseColorTexture":{
					"index":0
				},
				"metallicFactor":0,
				"roughnessFactor":0.5
			}
		}
	],
	"meshes":[
		{
			"name":"Cube",
			"primitives":[
				{
					"attributes":{
						"POSITION":0,
						"NORMAL":1,
						"TEXCOORD_0":2
					},
					"indices":3,
					"material":0
				}
			]
		}
	],
	"textures":[
		{
			"sampler":0,
			"source":0
		}
	],
	"images":[
		{
			"mimeType":"image/png",
			"name":"table_texture",
			"uri":"textures/table_texture.png"
		}
	],
	"accessors":[
		{
			"bufferView":0,
			"componentType":5126,
			"count":2531,
			"max":[
				1.1625328063964844,
				0.26697230339050293,
				2.428772211074829
			],
			"min":[
				-1.2462372779846191,
				-1.4058403968811035,
				-2.428748607635498
			],
			"type":"VEC3"
		},
		{
			"bufferView":1,
			"componentType":5126,
			"count":2531,
			"type":"VEC3"
		},
		{
			"bufferView":2,
			"componentType":5126,
			"count":2531,
			"type":"VEC2"
		},
		{
			"bufferView":3,
			"componentType":5123,
			"count":12090,
			"type":"SCALAR"
		}
	],
	"bufferViews":[
		{
			"buffer":0,
			"byteLength":30372,
			"byteOffset":0,
			"target":34962
		},
		{
			"buffer":0,
			"byteLength":30372,
			"byteOffset":30372,
			"target":34962
		},
		{
			"buffer":0,
			"byteLength":20248,
			"byteOffset":60744,
			"target":34962
		},
		{
			"buffer":0,
			"byteLength":24180,
			"byteOffset":80992,
			"target":34963
		}
	],
	"samplers":[
		{
			"magFilter":9729,
			"minFilter":9987
		}
	],
	"buffers":[
		{
			"byteLength":105172,
			"uri":"table.bin"
		}
	]
}
