{
	"asset":{
		"generator":"Khronos glTF Blender I/O v3.6.27",
		"version":"2.0"
	},
	"scene":0,
	"scenes":[
		{
			"name":"Scene",
			"nodes":[
				0
			]
		}
	],
	"nodes":[
		{
			"mesh":0,
			"name":"Toast"
		}
	],
	"materials":[
		{
			"doubleSided":true,
			"name":"Toast_All",
			"pbrMetallicRoughness":{
				"baseColorTexture":{
					"index":0
				},
				"metallicFactor":0,
				"roughnessFactor":0.5
			}
		}
	],
	"meshes":[
		{
			"name":"Cube",
			"primitives":[
				{
					"attributes":{
						"POSITION":0,
						"NORMAL":1,
						"TEXCOORD_0":2
					},
					"indices":3,
					"material":0
				}
			]
		}
	],
	"textures":[
		{
			"sampler":0,
			"source":0
		}
	],
	"images":[
		{
			"mimeType":"image/png",
			"name":"Toast",
			"uri":"textures/Toast.png"
		}
	],
	"accessors":[
		{
			"bufferView":0,
			"componentType":5126,
			"count":1306,
			"max":[
				0.09001298248767853,
				1.207055687904358,
				0.5753598213195801
			],
			"min":[
				-0.09001298248767853,
				0.00481337308883667,
				-0.5530862808227539
			],
			"type":"VEC3"
		},
		{
			"bufferView":1,
			"componentType":5126,
			"count":1306,
			"type":"VEC3"
		},
		{
			"bufferView":2,
			"componentType":5126,
			"count":1306,
			"type":"VEC2"
		},
		{
			"bufferView":3,
			"componentType":5123,
			"count":6540,
			"type":"SCALAR"
		}
	],
	"bufferViews":[
		{
			"buffer":0,
			"byteLength":15672,
			"byteOffset":0,
			"target":34962
		},
		{
			"buffer":0,
			"byteLength":15672,
			"byteOffset":15672,
			"target":34962
		},
		{
			"buffer":0,
			"byteLength":10448,
			"byteOffset":31344,
			"target":34962
		},
		{
			"buffer":0,
			"byteLength":13080,
			"byteOffset":41792,
			"target":34963
		}
	],
	"samplers":[
		{
			"magFilter":9729,
			"minFilter":9987
		}
	],
	"buffers":[
		{
			"byteLength":54872,
			"uri":"toast.bin"
		}
	]
}
