{
	"asset":{
		"generator":"Khronos glTF Blender I/O v3.6.27",
		"version":"2.0"
	},
	"scene":0,
	"scenes":[
		{
			"name":"Scene",
			"nodes":[
				0
			]
		}
	],
	"nodes":[
		{
			"mesh":0,
			"name":"Toaster",
			"rotation":[
				0.7071068286895752,
				0,
				0,
				0.7071068286895752
			]
		}
	],
	"materials":[
		{
			"doubleSided":true,
			"name":"Toaster",
			"pbrMetallicRoughness":{
				"baseColorTexture":{
					"index":0
				},
				"metallicFactor":0,
				"roughnessFactor":0.5
			}
		}
	],
	"meshes":[
		{
			"name":"Circle",
			"primitives":[
				{
					"attributes":{
						"POSITION":0,
						"NORMAL":1,
						"TEXCOORD_0":2
					},
					"indices":3,
					"material":0
				}
			]
		}
	],
	"textures":[
		{
			"sampler":0,
			"source":0
		}
	],
	"images":[
		{
			"mimeType":"image/png",
			"name":"toaster_texture_4k",
			"uri":"textures/toaster_texture_4k.png"
		}
	],
	"accessors":[
		{
			"bufferView":0,
			"componentType":5126,
			"count":5506,
			"max":[
				1.222989797592163,
				3.2171692848205566,
				2.2329611778259277
			],
			"min":[
				-1.2229853868484497,
				0.006959319114685059,
				-1.9725900888442993
			],
			"type":"VEC3"
		},
		{
			"bufferView":1,
			"componentType":5126,
			"count":5506,
			"type":"VEC3"
		},
		{
			"bufferView":2,
			"componentType":5126,
			"count":5506,
			"type":"VEC2"
		},
		{
			"bufferView":3,
			"componentType":5123,
			"count":22626,
			"type":"SCALAR"
		}
	],
	"bufferViews":[
		{
			"buffer":0,
			"byteLength":66072,
			"byteOffset":0,
			"target":34962
		},
		{
			"buffer":0,
			"byteLength":66072,
			"byteOffset":66072,
			"target":34962
		},
		{
			"buffer":0,
			"byteLength":44048,
			"byteOffset":132144,
			"target":34962
		},
		{
			"buffer":0,
			"byteLength":45252,
			"byteOffset":176192,
			"target":34963
		}
	],
	"samplers":[
		{
			"magFilter":9729,
			"minFilter":9987
		}
	],
	"buffers":[
		{
			"byteLength":221444,
			"uri":"toaster.bin"
		}
	]
}
